<svg width="22" height="22" viewBox="0 0 22 22" fill="none" xmlns="http://www.w3.org/2000/svg">
<path d="M16.2586 6.85307L16.2214 6.89236L12.729 10.5743C12.4522 10.8661 12.4546 10.8684 12.729 11.1287L16.8104 15C17.3 15.4644 17.2922 15.4725 16.8499 15.9389L16.2279 16.5946C15.8077 17.0377 15.8029 17.0427 15.2536 16.5218L11.3706 12.8386C10.9577 12.447 10.9551 12.4445 10.5812 12.8386L7.10825 16.5C6.46373 17.1795 6.46348 17.1793 6 16.7397L5.27626 16.0532C4.84755 15.6465 4.84779 15.6468 5.46125 15L8.98434 11.2858L9 11.2692C9.33913 10.9117 9.33498 10.9078 9 10.59L4.95451 6.75279C4.49133 6.31345 4.48382 6.32137 4.95451 5.82514L5.5939 5.15105C5.98832 4.73522 5.98844 4.7351 6.42697 5.15105L10.4848 9.00003C10.8362 9.33335 10.8346 9.33509 11.1524 9.00003L14.648 5.31474L14.6482 5.31453C15.3276 4.59828 15.328 4.59782 15.8687 5.11154L16.4098 5.62479C16.9437 6.13122 16.9435 6.13103 16.2586 6.85307Z" fill="#787676"/>
</svg>
