<?xml version="1.0" standalone="no"?>
<!DOCTYPE svg PUBLIC "-//W3C//DTD SVG 20010904//EN"
 "http://www.w3.org/TR/2001/REC-SVG-20010904/DTD/svg10.dtd">
<svg version="1.0" xmlns="http://www.w3.org/2000/svg"
 width="1280.000000pt" height="1184.000000pt" viewBox="0 0 1280.000000 1184.000000"
 preserveAspectRatio="xMidYMid meet">
<g transform="translate(0.000000,1184.000000) scale(0.100000,-0.100000)"
fill="#000000" stroke="none">
<path d="M650 11792 c0 -6 20 -60 44 -119 211 -516 301 -1023 255 -1441 -39
-365 -148 -668 -442 -1229 -263 -502 -354 -712 -421 -975 -53 -204 -91 -501
-83 -638 14 -243 74 -582 137 -771 209 -629 744 -952 1720 -1040 197 -18 619
-15 830 5 96 10 225 20 285 23 95 5 112 3 124 -11 34 -41 -38 -79 -609 -329
-591 -259 -883 -391 -883 -402 1 -25 345 -160 538 -210 367 -97 721 -116 1005
-54 52 11 121 23 152 26 53 5 58 4 68 -19 13 -28 13 -27 -83 -264 -177 -436
-267 -827 -267 -1159 0 -259 42 -431 143 -582 93 -139 199 -216 417 -303 212
-84 393 -190 580 -340 58 -47 229 -209 380 -361 151 -151 300 -292 331 -312
30 -19 86 -48 123 -63 37 -14 73 -36 81 -48 9 -15 15 -78 18 -211 4 -114 12
-216 21 -255 83 -358 286 -557 671 -656 77 -20 144 -40 150 -45 5 -5 217 -9
500 -9 472 0 493 1 509 19 10 11 41 25 69 31 373 84 585 296 672 670 11 48 20
141 24 257 6 173 7 183 30 207 13 14 45 32 70 41 96 31 173 96 476 395 165
163 334 323 375 357 168 135 335 234 510 303 183 72 219 89 279 129 341 232
424 704 245 1399 -46 181 -95 324 -195 575 -86 215 -88 225 -47 251 11 7 48 2
124 -17 170 -41 266 -50 489 -44 256 6 447 38 720 119 97 29 278 99 354 138
53 26 61 34 50 44 -14 13 -73 40 -839 376 -697 306 -753 336 -691 370 14 7 87
3 253 -15 371 -39 662 -50 918 -36 691 38 1163 202 1494 522 249 239 383 526
441 939 9 63 20 145 25 182 15 101 12 201 -10 380 -44 347 -112 592 -267 958
-25 58 -136 292 -248 520 -271 554 -327 690 -379 921 -105 474 -25 1073 227
1694 24 61 43 112 41 114 -12 13 -225 -188 -348 -329 -360 -411 -558 -777
-622 -1150 -21 -125 -14 -353 16 -495 22 -101 106 -363 265 -820 100 -291 154
-473 191 -658 25 -118 27 -154 28 -337 0 -192 -2 -211 -27 -304 -43 -156 -114
-295 -210 -409 -124 -149 -294 -127 -852 108 -409 173 -536 224 -714 289 -201
72 -443 146 -579 176 -51 11 -101 25 -111 31 -10 7 -38 46 -62 88 -27 47 -77
109 -129 161 -212 214 -562 379 -1025 485 -139 31 -165 45 -165 82 0 42 25 59
154 109 66 26 125 51 130 56 22 19 -251 -1 -434 -32 -381 -65 -808 -220 -1174
-427 l-79 -45 -216 109 c-492 250 -917 373 -1371 398 -138 8 -144 2 -40 -35
173 -63 228 -99 216 -144 -7 -29 -38 -41 -222 -85 -540 -128 -962 -371 -1100
-634 -19 -37 -45 -74 -57 -81 -12 -8 -89 -31 -172 -51 -290 -72 -620 -188
-1065 -377 -535 -228 -667 -272 -815 -272 -74 -1 -97 3 -131 21 -52 28 -101
84 -164 189 -100 164 -148 326 -157 529 -13 304 44 555 272 1195 205 574 249
749 248 980 -1 232 -60 453 -188 706 -170 338 -450 685 -773 958 -12 11 -22
14 -22 8z"/>
</g>
</svg>
