<svg width="50" height="50" viewBox="0 0 50 50" fill="none" xmlns="http://www.w3.org/2000/svg">
<rect width="50" height="50" fill="white"/>
<path d="M21.1266 33.9459V25.5454M21.1266 25.5454V17.1449C23.7909 16.3671 29.0308 16.0248 28.6756 20.8784C28.5296 22.8721 27.6295 24.0941 26.4553 24.8096M21.1266 25.5454C22.5221 25.8204 24.7708 25.8361 26.4553 24.8096M26.4553 24.8096L31.3399 33.9459M12.2455 8.27833C16.2421 2.21067 31.6953 0.15757 36.6687 8.74477L34.0044 12.4786C41.1093 21.3458 39.7771 26.9461 35.3365 35.8134L38.889 39.5469C36.6687 46.0807 17.219 50.0009 10.4693 39.5469L13.5777 35.8134C13.5777 35.8134 9.65051 31.6124 10.0252 24.1453C10.4701 15.2781 16.2421 12.4786 16.2421 12.4786L12.2455 8.27833Z" stroke="black" stroke-width="4"/>
</svg>
