<svg width="50" height="50" viewBox="0 0 50 50" fill="none" xmlns="http://www.w3.org/2000/svg">
<rect width="50" height="50" fill="url(#paint0_linear)"/>
<path d="M33.5 17.0938C33.5 17.0938 34 27.1875 33.4993 29.8438C32.9986 32.5 30.9993 33.375 29 35.6875C27.0007 38 25 41 25 41C25 41 22.5 37.5 19.9993 35.6875C17.7601 34.0645 16.4987 33.0312 15.9993 29.8438C15.4999 26.6562 15.9993 17.0938 15.9993 17.0938M33.5 17.0938L29 15.7656V14.4375M33.5 17.0938L34.8462 13.375M33.5 17.0938C30 15.6874 21.9987 14.5437 15.9993 17.0938M24.5 14.4375V11.25V10.7188M15.9993 17.0938L14.6683 13.2033M19.9993 22L25 31L29.5 22M24.5 7V10.7188M24.5 10.7188H22M24.5 10.7188H27M36 10.1875L34.8462 13.375M34.8462 13.375L32.5 12.3125M14 11.25L14.6683 13.2033M14.6683 13.2033L17 12.3125M20.5 15.6874V14.4375" stroke="black" stroke-width="2.4" stroke-linecap="square"/>
<defs>
<linearGradient id="paint0_linear" x1="0" y1="25" x2="50" y2="25" gradientUnits="userSpaceOnUse">
<stop offset="0.4999" stop-color="#C51B08"/>
<stop offset="0.5" stop-color="white"/>
</linearGradient>
</defs>
</svg>
