<svg width="50" height="50" viewBox="0 0 50 50" fill="none" xmlns="http://www.w3.org/2000/svg">
<rect width="50" height="50" fill="url(#paint0_linear)"/>
<path d="M18.0565 11.8185C20.6457 9.46063 23.3679 9.56717 25.216 9.56405C26.1284 9.56251 26.0528 9.78845 26.9009 10.1632L27.9123 10.6912C28.7337 11.2548 30.3766 12.9456 30.3766 15.2C30.3766 17.4544 30.3766 13.5092 30.3766 11.2548M18.0565 11.8185C17.4381 12.3816 14.6076 14.6139 14.6074 19.6866C14.6072 24.0319 15.007 25.9364 18.0565 28.4091M18.0565 11.8185C13.1289 17.7473 14.6074 25.6481 18.0565 28.4091M29.7675 21.4172L30.3842 21.4173C31.3392 21.4173 31.0003 21.5 30.4197 22C29.9854 22.5989 29.7682 23.3439 29.7682 23.6717M29.7675 21.4172L29.7682 23.6717M29.7675 21.4172L29.1521 21.4173C27.8231 21.4173 28.4977 21.4247 29.0622 22C29.4191 22.4644 29.7682 23.084 29.7682 23.6717M29.7682 23.6717L29.7675 29.2867C28.7406 30.0382 24.0125 32.313 19.2866 29.2867C18.8311 28.9951 18.4225 28.7058 18.0565 28.4091M30.3766 13.5092V11.2548M30.3766 11.2548L30.3842 9M25.6253 17.6111C25.6253 17.6111 25.6253 18.8761 25.6253 19.6866M25.6253 17.6111H26.6259C27.7614 17.6111 27.3747 17.7974 27.0003 18C26.6259 18.2026 26.0003 18.5 25.6253 19.6866M25.6253 17.6111H24.5628C23.132 17.6111 23.125 17.6111 24.0003 18C24.5628 18.3819 25.0003 18.5 25.6253 19.6866M25.6253 19.6866C25.6253 25.826 25.6253 35.4074 25.6253 35.4074C25.6253 35.4074 25.6253 40 21.6789 40C19.2351 40 18.1882 38.239 17.7453 36.898M17.7453 36.898C17.6338 36.5605 17.5606 36.2496 17.5129 36C17.3801 35.4513 17.4289 35.4074 17.0003 35.4074H16.0003C15.5 35.4074 15.729 35.3779 16.1649 35.5212C16.8917 35.695 17.6169 36.0914 17.7453 36.898Z" stroke="black" stroke-width="2"/>
<defs>
<linearGradient id="paint0_linear" x1="50" y1="25" x2="-7.82311e-07" y2="25" gradientUnits="userSpaceOnUse">
<stop offset="0.4999" stop-color="#245699"/>
<stop offset="0.5" stop-color="#E6BABC"/>
</linearGradient>
</defs>
</svg>
