<svg width="50" height="50" viewBox="0 0 50 50" fill="none" xmlns="http://www.w3.org/2000/svg">
<rect width="50" height="50" fill="white"/>
<path d="M9 42.9996H12C14.5 43 14.4992 42.9997 14.5 40.9998V39C14.5 36.6 14.5 36.4139 17 36.4139L24.5 36.3466M41 42.9996L36 42.9996C34 42.9996 34 42.9996 34 40.9998V39C34 36.5 33.9 36.4139 31.5 36.4139L24.5 36.3466M24.5 36.3466V31.4324M24.5 31.4324C16.75 30.9324 13.5 24.8636 13.5 15.1369M24.5 31.4324C36.25 31.4324 37 19.6963 38 15.1369M13.5 15.1369C13.6667 12.2662 16.05 6.40528 25.25 6C34.45 5.59473 37.6667 11.9285 38 15.1369M13.5 15.1369C23 19.9996 30.5 19.4996 38 15.1369" stroke="black" stroke-width="2" stroke-linecap="round"/>
</svg>
