<svg width="50" height="50" viewBox="0 0 50 50" fill="none" xmlns="http://www.w3.org/2000/svg">
<rect width="50" height="50" fill="white"/>
<path d="M45 24.3292C45 21.5297 43.2252 19.4644 40.31 17.6875M5 24.3292C5.21966 21.988 6.79032 19.6138 9.5 17.6875M21.5 23.5C16.8371 19.3033 9 28 17.5 31.3924C19 32 19.1 31.964 17.5 32.8689C9.76623 37.2428 15.9674 45.1661 22.5 40.5M36.5 22.5C33.0461 21.8993 26.8861 20.3515 26.4319 27C26.5 29.5 26.5 29.3559 28.5 29.1977C41.0157 28.0472 40.849 42.8794 28 40.5M9.5 17.6875L5 11.5M9.5 17.6875C11.3336 16.384 13.6889 15.2855 16.5 14.5411M16.5 14.5411L14 6.5M16.5 14.5411C18.7252 13.9519 22.2361 13.5845 25 13.5129M25 13.5129C25.3297 13.5043 24.6631 13.5 25 13.5C27.3268 13.5 29.5 13.5 33 14.3299C33.1846 14.4003 33.3678 14.4707 33.5496 14.5411M25 13.5129V5M40.31 17.6875L43.5 11.5M40.31 17.6875C38.4613 16.5606 36.1538 15.5497 33.5496 14.5411M33.5496 14.5411L36 6.5" stroke="black" stroke-width="2" stroke-linecap="round"/>
</svg>
