<svg width="50" height="50" viewBox="0 0 50 50" fill="none" xmlns="http://www.w3.org/2000/svg">
<rect width="50" height="50" fill="white"/>
<path d="M24.5 28.9999V36.3466V40.3149M24.5 28.9999C16.75 28.4999 14.5 18.2263 14.5 8.49967M24.5 28.9999C36.25 28.9999 34.5 13.499 35 8.49893M14.5 8.49967C14.6667 5.62897 22 3.99902 25.5 3.99902C28.5 3.99902 35 4.99902 35 8.49893M14.5 8.49967C24.5 10.999 25.5 10.999 35 8.49893M17.5 46.4999C17.5 42.2086 21.043 40.2112 24.5 40.3149M31 46.4999C31.1981 42.5389 27.8904 40.4165 24.5 40.3149" stroke="black" stroke-width="2" stroke-linecap="round"/>
</svg>
