<svg width="50" height="50" viewBox="0 0 50 50" fill="none" xmlns="http://www.w3.org/2000/svg">
<rect width="50" height="50" fill="url(#paint0_linear)"/>
<path d="M16.875 40C17.5 38.9492 18.125 37.3729 18.125 35.2712C18.125 33.1695 16.0436 30.357 15.6722 29.4111C15.06 27.8515 14.2843 24.5716 16.301 22.5248C17.0239 21.7912 18.8071 20.9371 20.6868 20.9346C23.3693 20.931 25.0731 24.1116 25.0731 24.1116M25.0731 24.1116C25.0731 24.1116 26.0271 21.9018 28.2057 20.9325C30.0853 20.0962 32.1334 20.6823 33.8447 22.5222C34.801 23.5504 35.5461 26.7615 34.4713 29.4111C33.3964 32.0606 32.5 34.4904 32.5 35.7966C32.5 37.1028 33.125 40 33.125 40M25.0731 24.1116V17.4068M25.0731 9V13.2034M25.0731 13.2034H20M25.0731 13.2034H30M25.0731 13.2034V17.4068M25.0731 17.4068H20" stroke="white" stroke-width="2.4"/>
<defs>
<linearGradient id="paint0_linear" x1="50" y1="25" x2="-7.82311e-07" y2="25" gradientUnits="userSpaceOnUse">
<stop offset="0.4999" stop-color="#212025"/>
<stop offset="0.5" stop-color="#C51D43"/>
</linearGradient>
</defs>
</svg>
